#define mtall_width 12
#define mtall_height 12
static unsigned char mtall_bits[] = {
   0xff, 0x0f, 0xff, 0x0f, 0xff, 0x0f, 0xff, 0x0f, 0xff, 0x0f, 0xff, 0x0f,
   0x00, 0x00, 0xf7, 0x0e, 0xf7, 0x0e, 0xf7, 0x0e, 0xf7, 0x0e, 0xf7, 0x0e };
