#define tall_width 12
#define tall_height 12
static unsigned char tall_bits[] = {
   0xdf, 0x0f, 0xdf, 0x0f, 0xdf, 0x0f, 0xc0, 0x0f, 0xdf, 0x0f, 0xdf, 0x0f,
   0xdf, 0x0f, 0xdf, 0x0f, 0xc0, 0x0f, 0xdf, 0x0f, 0xdf, 0x0f, 0xdf, 0x0f };
